<svg width="312" height="133" viewBox="0 0 312 133" fill="none" xmlns="http://www.w3.org/2000/svg">
<rect width="312" height="133" rx="17" fill="#181728"/>
<rect x="2" y="2" width="308" height="129" rx="15" stroke="url(#paint0_radial_1_112)" stroke-opacity="0.52" stroke-width="4"/>
<g clip-path="url(#clip0_1_112)">
<mask id="mask0_1_112" style="mask-type:luminance" maskUnits="userSpaceOnUse" x="28" y="64" width="261" height="39">
<path d="M28 64.5698L288.43 64.5698V103H28V64.5698Z" fill="white"/>
</mask>
<g mask="url(#mask0_1_112)">
<path d="M71.753 94.8696L64.6093 102.476C64.4548 102.641 64.2677 102.773 64.0596 102.863C63.8515 102.953 63.627 103 63.3999 103H29.5359C29.3744 103 29.2164 102.953 29.0813 102.865C28.9462 102.777 28.8399 102.652 28.7753 102.505C28.7107 102.358 28.6906 102.196 28.7176 102.038C28.7446 101.879 28.8174 101.733 28.9272 101.615L36.0628 94.0089C36.2173 93.8437 36.4045 93.7119 36.6125 93.6217C36.8206 93.5314 37.0452 93.4847 37.2722 93.4845H71.1362C71.2992 93.4812 71.4596 93.5258 71.5971 93.6127C71.7346 93.6996 71.8432 93.825 71.9091 93.9731C71.9751 94.1212 71.9954 94.2853 71.9676 94.4448C71.9399 94.6043 71.8652 94.7521 71.753 94.8696ZM64.6093 79.5495C64.4542 79.3851 64.267 79.2538 64.059 79.1636C63.8511 79.0734 63.6268 79.0263 63.3999 79.0251H29.5359C29.3744 79.0252 29.2164 79.0721 29.0813 79.16C28.9462 79.2478 28.8399 79.3729 28.7753 79.5199C28.7107 79.6669 28.6906 79.8294 28.7176 79.9876C28.7446 80.1457 28.8174 80.2926 28.9272 80.4102L36.0628 88.0202C36.2179 88.1847 36.4052 88.316 36.6131 88.4062C36.8211 88.4963 37.0453 88.5434 37.2722 88.5446H71.1362C71.2974 88.5438 71.4548 88.4963 71.5893 88.4082C71.7238 88.32 71.8296 88.1948 71.8937 88.048C71.9578 87.9012 71.9775 87.739 71.9504 87.5812C71.9232 87.4234 71.8505 87.2769 71.7409 87.1595L64.6093 79.5495ZM29.5359 74.0853H63.3999C63.627 74.0851 63.8516 74.0384 64.0596 73.9482C64.2677 73.8579 64.4549 73.7261 64.6093 73.5608L71.753 65.9549C71.8368 65.867 71.8999 65.7618 71.938 65.6468C71.976 65.5319 71.988 65.41 71.9731 65.2899C71.9582 65.1698 71.9167 65.0545 71.8517 64.9521C71.7867 64.8498 71.6997 64.763 71.597 64.6979C71.4595 64.611 71.2992 64.5664 71.1362 64.5698H37.2722C37.0452 64.57 36.8206 64.6167 36.6125 64.7069C36.4045 64.7971 36.2173 64.929 36.0628 65.0942L28.9272 72.7002C28.8174 72.8178 28.7446 72.9647 28.7176 73.1228C28.6906 73.281 28.7107 73.4435 28.7753 73.5905C28.8399 73.7374 28.9462 73.8625 29.0813 73.9504C29.2164 74.0383 29.3744 74.0852 29.5359 74.0853Z" fill="url(#paint1_linear_1_112)"/>
<path d="M113.039 80.8226H94.9214V74.8979H117.747V68.9733H94.8609C94.079 68.9689 93.3038 69.1176 92.5797 69.4108C91.8556 69.704 91.1968 70.136 90.6408 70.6821C90.0849 71.2282 89.6427 71.8777 89.3396 72.5935C89.0365 73.3093 88.8784 74.0774 88.8743 74.8539V80.8586C88.8773 81.6358 89.0347 82.4047 89.3373 83.1214C89.64 83.8382 90.0819 84.4886 90.638 85.0355C91.194 85.5825 91.8532 86.0152 92.5778 86.3089C93.3025 86.6026 94.0783 86.7516 94.8609 86.7472H113.002V92.6719H89.3056V98.5965H113.039C114.216 98.6031 115.37 98.2626 116.352 97.6181C117.335 96.9737 118.103 96.0542 118.56 94.9761C118.863 94.2604 119.021 93.4924 119.025 92.7159V86.7112C119.022 85.934 118.865 85.1651 118.562 84.4484C118.259 83.7317 117.817 83.0813 117.261 82.5344C116.705 81.9875 116.046 81.5548 115.322 81.261C114.597 80.9673 113.821 80.8183 113.039 80.8226ZM148.136 68.9733H129.95C128.771 68.9639 127.615 69.3027 126.629 69.9466C125.644 70.5905 124.873 71.5106 124.415 72.5901C124.111 73.3068 123.952 74.0761 123.948 74.8539V92.7159C123.952 93.4937 124.111 94.2631 124.415 94.9801C124.873 96.0596 125.644 96.9797 126.629 97.6236C127.615 98.2674 128.771 98.6061 129.95 98.5965H148.136C148.918 98.6009 149.693 98.4522 150.417 98.159C151.142 97.8658 151.8 97.4338 152.356 96.8877C152.912 96.3416 153.354 95.6921 153.658 94.9763C153.961 94.2605 154.119 93.4924 154.123 92.7159V74.8539C154.119 74.0774 153.961 73.3093 153.657 72.5936C153.354 71.8779 152.912 71.2285 152.356 70.6826C151.8 70.1363 151.141 69.7042 150.417 69.4109C149.693 69.1176 148.918 68.9689 148.136 68.9733ZM148.092 92.6719H129.995V74.8979H148.084L148.092 92.6719ZM211.833 68.9733H194.094C193.312 68.9689 192.537 69.1176 191.813 69.4108C191.089 69.704 190.43 70.136 189.874 70.6821C189.318 71.2282 188.876 71.8777 188.573 72.5935C188.27 73.3093 188.112 74.0774 188.108 74.8539V98.5965H194.155V88.8649H211.813V98.5965H217.86V74.8539C217.856 74.074 217.696 73.3025 217.391 72.584C217.085 71.8656 216.639 71.2142 216.079 70.6676C215.519 70.121 214.855 69.6898 214.126 69.399C213.398 69.1082 212.618 68.9635 211.833 68.9733ZM211.788 82.9402H194.131V74.8979H211.788V82.9402ZM282.443 68.9733H264.705C263.923 68.9689 263.148 69.1176 262.424 69.4108C261.7 69.704 261.041 70.136 260.485 70.6821C259.929 71.2282 259.487 71.8777 259.184 72.5935C258.88 73.3093 258.722 74.0774 258.718 74.8539V98.5965H264.765V88.8649H282.383V98.5965H288.43V74.8539C288.426 74.0774 288.268 73.3093 287.964 72.5936C287.661 71.8779 287.219 71.2285 286.663 70.6826C285.54 69.5798 284.022 68.9649 282.443 68.9733ZM282.383 82.9402H264.725V74.8979H282.383V82.9402ZM247.309 92.6719H244.89L236.243 71.4552C235.947 70.7231 235.437 70.0957 234.779 69.6535C234.121 69.2112 233.345 68.9744 232.55 68.9733H227.184C226.399 68.969 225.63 69.1964 224.975 69.6264C224.319 70.0565 223.807 70.67 223.503 71.3892C223.301 71.8665 223.196 72.3786 223.193 72.8963V98.5965H229.24V74.8979H231.659L240.303 96.1146C240.604 96.8453 241.118 97.4703 241.778 97.9095C242.439 98.3488 243.216 98.5824 244.012 98.5805H249.377C249.899 98.5833 250.416 98.484 250.899 98.2882C251.382 98.0925 251.821 97.8041 252.191 97.4396C252.94 96.7039 253.363 95.7031 253.368 94.6575V68.9733H247.309V92.6719ZM165.512 68.9733H159.465V92.7159C159.469 93.4941 159.627 94.2638 159.932 94.9808C160.236 95.6979 160.68 96.3482 161.238 96.8944C161.796 97.4407 162.458 97.8722 163.184 98.1643C163.91 98.4564 164.688 98.6033 165.471 98.5965H183.613V92.6719H165.512V68.9733Z" fill="white"/>
</g>
</g>
<path d="M275.732 33.65H268.032V48H264.532V30.5H279.232V48H275.732V33.65Z" fill="white"/>
<path d="M253.696 48.35C248.376 48.35 245.331 44.745 245.331 39.25C245.331 33.755 248.376 30.15 253.696 30.15C259.016 30.15 262.061 33.755 262.061 39.25C262.061 44.745 259.016 48.35 253.696 48.35ZM253.696 45.2C257.301 45.2 258.561 43.8 258.561 39.25C258.561 34.7 257.301 33.3 253.696 33.3C250.091 33.3 248.831 34.7 248.831 39.25C248.831 43.8 250.091 45.2 253.696 45.2Z" fill="white"/>
<path d="M224.757 48.35C216.847 48.35 215.867 42.715 215.867 39.25C215.867 33.755 218.037 30.15 223.427 30.15C228.817 30.15 230.987 33.405 230.987 38.9V40.825H219.437C219.682 43.275 220.662 45.2 224.757 45.2C226.157 45.2 227.522 45.2 229.797 44.57V47.65C227.067 48.35 226.087 48.35 224.757 48.35ZM219.367 37.675H227.487C227.417 34.63 226.262 33.3 223.427 33.3C220.732 33.3 219.542 34.84 219.367 37.675Z" fill="white"/>
<path d="M209.542 23.5H213.042V48H209.542V23.5Z" fill="white"/>
<path d="M199.44 30.15C205.11 30.15 207.105 34.105 207.105 39.25C207.105 44.395 205.11 48.35 199.44 48.35C196.99 48.35 195.275 47.405 194.225 45.9V48H190.725V23.5H194.225V32.6C195.275 31.095 196.99 30.15 199.44 30.15ZM198.915 45.2C202.345 45.2 203.605 43.45 203.605 39.25C203.605 35.05 202.345 33.3 198.915 33.3C195.485 33.3 194.225 35.05 194.225 39.25C194.225 43.45 195.485 45.2 198.915 45.2Z" fill="white"/>
<path d="M183.701 23.5H187.201V27H183.701V23.5ZM183.701 30.5H187.201V48H183.701V30.5Z" fill="white"/>
<path d="M173.971 48.35C171.241 48.35 169.106 47.825 166.551 46.11V42.575C169.736 44.57 171.381 45.2 173.971 45.2C176.246 45.2 177.051 44.22 177.051 43.135C177.051 41.91 176.141 41.245 172.921 40.545C167.916 39.46 166.551 37.815 166.551 35.05C166.551 32.145 169.036 30.15 172.781 30.15C175.126 30.15 177.436 30.78 179.151 31.97V35.12C176.596 33.86 174.356 33.3 172.431 33.3C170.646 33.3 170.051 34.07 170.051 34.945C170.051 35.925 170.506 36.59 173.481 37.395C178.661 38.795 180.551 39.88 180.551 43.1C180.551 46.075 178.066 48.35 173.971 48.35Z" fill="white"/>
<path d="M157.547 48.35C154.817 48.35 152.682 47.825 150.127 46.11V42.575C153.312 44.57 154.957 45.2 157.547 45.2C159.822 45.2 160.627 44.22 160.627 43.135C160.627 41.91 159.717 41.245 156.497 40.545C151.492 39.46 150.127 37.815 150.127 35.05C150.127 32.145 152.612 30.15 156.357 30.15C158.702 30.15 161.012 30.78 162.727 31.97V35.12C160.172 33.86 157.932 33.3 156.007 33.3C154.222 33.3 153.627 34.07 153.627 34.945C153.627 35.925 154.082 36.59 157.057 37.395C162.237 38.795 164.127 39.88 164.127 43.1C164.127 46.075 161.642 48.35 157.547 48.35Z" fill="white"/>
<path d="M139.291 48.35C133.971 48.35 130.926 44.745 130.926 39.25C130.926 33.755 133.971 30.15 139.291 30.15C144.611 30.15 147.656 33.755 147.656 39.25C147.656 44.745 144.611 48.35 139.291 48.35ZM139.291 45.2C142.896 45.2 144.156 43.8 144.156 39.25C144.156 34.7 142.896 33.3 139.291 33.3C135.686 33.3 134.426 34.7 134.426 39.25C134.426 43.8 135.686 45.2 139.291 45.2Z" fill="white"/>
<path d="M121.148 30.15C126.818 30.15 128.813 34.105 128.813 39.25C128.813 44.395 126.818 48.35 121.148 48.35C118.698 48.35 116.983 47.405 115.933 45.9V53.6H112.433V30.5H115.933V32.6C116.983 31.095 118.698 30.15 121.148 30.15ZM120.623 45.2C124.053 45.2 125.313 43.45 125.313 39.25C125.313 35.05 124.053 33.3 120.623 33.3C117.193 33.3 115.933 35.05 115.933 39.25C115.933 43.45 117.193 45.2 120.623 45.2Z" fill="white"/>
<path d="M93.5345 30.5H97.0345V53.6H83.7345V50.45H93.5345V44.85C92.4845 46.005 90.7695 46.95 88.6695 46.95C83.3495 46.95 81.3545 43.345 81.3545 38.9V30.5H84.8545V38.9C84.8545 42.4 86.1145 43.8 89.1945 43.8C92.2745 43.8 93.5345 42.4 93.5345 38.9V30.5Z" fill="white"/>
<path d="M74.3381 23.5H77.8381V48H74.3381V23.5Z" fill="white"/>
<path d="M66.9867 33.65H59.2867V48H55.7867V30.5H70.4867V48H66.9867V33.65Z" fill="white"/>
<path d="M41.37 48.35C34.09 48.35 29.75 43.1 29.75 36.1C29.75 29.1 34.09 23.85 41.37 23.85C48.65 23.85 52.99 29.1 52.99 36.1C52.99 43.1 48.65 48.35 41.37 48.35ZM41.37 45.2C46.025 45.2 49.49 42.785 49.49 36.1C49.49 29.415 46.025 27 41.37 27C36.68 27 33.25 29.415 33.25 36.1C33.25 42.785 36.68 45.2 41.37 45.2Z" fill="white"/>
<defs>
<radialGradient id="paint0_radial_1_112" cx="0" cy="0" r="1" gradientUnits="userSpaceOnUse" gradientTransform="translate(206.655 -9.24837) rotate(143.189) scale(237.404 544.481)">
<stop stop-color="#9945FF"/>
<stop offset="0.245" stop-color="#8752F3"/>
<stop offset="0.385" stop-color="#5497D5"/>
<stop offset="0.54" stop-color="#4CA6D0"/>
<stop offset="0.735" stop-color="#28E0B9"/>
<stop offset="1" stop-color="#19FB9B"/>
</radialGradient>
<linearGradient id="paint1_linear_1_112" x1="32.3579" y1="103.917" x2="67.5872" y2="63.9192" gradientUnits="userSpaceOnUse">
<stop offset="0.08" stop-color="#9945FF"/>
<stop offset="0.3" stop-color="#8752F3"/>
<stop offset="0.5" stop-color="#5497D5"/>
<stop offset="0.6" stop-color="#43B4CA"/>
<stop offset="0.72" stop-color="#28E0B9"/>
<stop offset="0.97" stop-color="#19FB9B"/>
</linearGradient>
<clipPath id="clip0_1_112">
<rect width="260.43" height="38.4302" fill="white" transform="translate(28 64.5698)"/>
</clipPath>
</defs>
</svg>
